<?xml version="1.0" encoding="UTF-8" standalone="no"?><!DOCTYPE svg PUBLIC "-//W3C//DTD SVG 1.1//EN" "http://www.w3.org/Graphics/SVG/1.1/DTD/svg11.dtd"><svg width="100%" height="100%" viewBox="0 0 340 195" version="1.1" xmlns="http://www.w3.org/2000/svg" xmlns:xlink="http://www.w3.org/1999/xlink" xml:space="preserve" style="fill-rule:evenodd;clip-rule:evenodd;stroke-linejoin:round;stroke-miterlimit:1.41421;"><rect id="Artboard1" x="0" y="0" width="339.75" height="194.5" style="fill:none;"/><g id="Objects"><g><path d="M32.171,154.815c0,2.76 -0.852,4.776 -2.556,6.048c-1.704,1.272 -4.044,1.908 -7.02,1.908l-3.204,0l0,9.216l-3.096,0l0,-24.804l6.3,0c3.048,0 5.406,0.636 7.074,1.908c1.668,1.272 2.502,3.18 2.502,5.724Zm-3.348,0.036c0,-1.8 -0.522,-3.114 -1.566,-3.942c-1.044,-0.828 -2.466,-1.242 -4.266,-1.242l-3.6,0l0,10.62l3.492,0c1.872,0 3.33,-0.408 4.374,-1.224c1.044,-0.816 1.566,-2.22 1.566,-4.212Z" style="fill:#416b99;fill-rule:nonzero;"/><path d="M64.484,159.603c0,3.864 -0.786,6.96 -2.358,9.288c-1.572,2.328 -3.822,3.492 -6.75,3.492c-2.952,0 -5.208,-1.14 -6.768,-3.42c-1.56,-2.28 -2.34,-5.388 -2.34,-9.324c0,-2.52 0.348,-4.752 1.044,-6.696c0.696,-1.944 1.728,-3.456 3.096,-4.536c1.368,-1.08 3.024,-1.62 4.968,-1.62c2.928,0 5.178,1.158 6.75,3.474c1.572,2.316 2.358,5.43 2.358,9.342Zm-3.24,0c0,-3.384 -0.468,-5.928 -1.404,-7.632c-0.936,-1.704 -2.424,-2.556 -4.464,-2.556c-2.04,0 -3.528,0.858 -4.464,2.574c-0.936,1.716 -1.404,4.266 -1.404,7.65c0,3.36 0.474,5.886 1.422,7.578c0.948,1.692 2.43,2.538 4.446,2.538c2.04,0 3.528,-0.846 4.464,-2.538c0.936,-1.692 1.404,-4.23 1.404,-7.614Z" style="fill:#416b99;fill-rule:nonzero;"/><path d="M94.71,171.987l-4.104,0l-2.844,-18.72l-2.88,18.72l-4.212,0l-3.456,-24.804l3.132,0l2.628,21.384l2.988,-18.504l3.816,0l2.844,18.504l2.952,-21.384l2.88,0l-3.744,24.804Z" style="fill:#416b99;fill-rule:nonzero;"/><path d="M117.123,158.127l9.216,0l0,2.556l-9.216,0l0,8.784l11.304,0l0,2.52l-14.4,0l0,-24.804l14.076,0l-0.36,2.592l-10.62,0l0,8.352Z" style="fill:#416b99;fill-rule:nonzero;"/><path d="M161.28,154.167c0,1.776 -0.552,3.246 -1.656,4.41c-1.104,1.164 -2.568,1.974 -4.392,2.43l7.38,10.98l-3.744,0l-6.804,-10.62l-3.348,0l0,10.62l-3.096,0l0,-24.804l6.336,0c3.072,0 5.394,0.588 6.966,1.764c1.572,1.176 2.358,2.916 2.358,5.22Zm-3.312,0c0,-1.584 -0.456,-2.724 -1.368,-3.42c-0.912,-0.696 -2.34,-1.044 -4.284,-1.044l-3.6,0l0,9.216l3.636,0c1.848,0 3.246,-0.378 4.194,-1.134c0.948,-0.756 1.422,-1.962 1.422,-3.618Z" style="fill:#416b99;fill-rule:nonzero;"/><path d="M193.737,154.167c0,1.776 -0.552,3.246 -1.656,4.41c-1.104,1.164 -2.568,1.974 -4.392,2.43l7.38,10.98l-3.744,0l-6.804,-10.62l-3.348,0l0,10.62l-3.096,0l0,-24.804l6.336,0c3.072,0 5.394,0.588 6.966,1.764c1.572,1.176 2.358,2.916 2.358,5.22Zm-3.312,0c0,-1.584 -0.456,-2.724 -1.368,-3.42c-0.912,-0.696 -2.34,-1.044 -4.284,-1.044l-3.6,0l0,9.216l3.636,0c1.848,0 3.246,-0.378 4.194,-1.134c0.948,-0.756 1.422,-1.962 1.422,-3.618Z" style="fill:#416b99;fill-rule:nonzero;"/><path d="M212.658,165.651l-1.98,6.336l-3.096,0l8.1,-24.804l3.96,0l8.064,24.804l-3.24,0l-1.98,-6.336l-9.828,0Zm9,-2.592l-4.068,-13.212l-4.104,13.212l8.172,0Z" style="fill:#416b99;fill-rule:nonzero;"/><path d="M257.212,149.703l-5.508,0l0,19.8l5.508,0l0,2.484l-14.184,0l0,-2.484l5.508,0l0,-19.8l-5.508,0l0,-2.52l14.184,0l0,2.52Z" style="fill:#416b99;fill-rule:nonzero;"/><path d="M276.673,147.183l3.096,0l0,22.032l11.34,0l-0.396,2.772l-14.04,0l0,-24.804Z" style="fill:#416b99;fill-rule:nonzero;"/><path d="M323.566,165.111c0,1.44 -0.36,2.706 -1.08,3.798c-0.72,1.092 -1.764,1.944 -3.132,2.556c-1.368,0.612 -2.988,0.918 -4.86,0.918c-1.8,0 -3.438,-0.27 -4.914,-0.81c-1.476,-0.54 -2.742,-1.314 -3.798,-2.322l1.872,-2.124c0.912,0.864 1.926,1.524 3.042,1.98c1.116,0.456 2.394,0.684 3.834,0.684c1.632,0 3,-0.396 4.104,-1.188c1.104,-0.792 1.656,-1.932 1.656,-3.42c0,-0.84 -0.156,-1.536 -0.468,-2.088c-0.312,-0.552 -0.858,-1.044 -1.638,-1.476c-0.78,-0.432 -1.878,-0.852 -3.294,-1.26c-2.688,-0.792 -4.692,-1.722 -6.012,-2.79c-1.32,-1.068 -1.98,-2.526 -1.98,-4.374c0,-1.224 0.336,-2.328 1.008,-3.312c0.672,-0.984 1.62,-1.746 2.844,-2.286c1.224,-0.54 2.616,-0.81 4.176,-0.81c1.632,0 3.09,0.24 4.374,0.72c1.284,0.48 2.466,1.188 3.546,2.124l-1.872,2.016c-1.704,-1.488 -3.684,-2.232 -5.94,-2.232c-1.44,0 -2.628,0.312 -3.564,0.936c-0.936,0.624 -1.404,1.536 -1.404,2.736c0,0.72 0.192,1.332 0.576,1.836c0.384,0.504 1.02,0.972 1.908,1.404c0.888,0.432 2.136,0.876 3.744,1.332c2.328,0.672 4.122,1.548 5.382,2.628c1.26,1.08 1.89,2.688 1.89,4.824Z" style="fill:#416b99;fill-rule:nonzero;"/></g><path d="M263.677,52.224c0.001,0.001 0.053,0.523 -1.4,0.568c-1.452,0.046 -2.637,-0.63 -2.637,-0.63c0,-0.013 -6.761,-0.673 -7.127,-0.786c-0.356,-0.133 -4.228,-4.536 -4.034,-4.839c2.53,0.025 5.063,0.069 7.598,0.132c0,0 0.447,-0.484 1.821,-0.483c1.372,0.003 2.376,0.554 2.376,0.554c1.941,0.055 3.882,0.121 5.826,0.198c0.685,1.645 1.361,3.29 2.03,4.936c-1.487,0.111 -2.971,0.227 -4.453,0.35m1.014,14.828c-0.325,0.089 -13.779,0.082 -14.343,0.134c-0.496,-0.072 -15.497,-10.095 -14.805,-11.221c0.772,-1.226 12.137,-0.132 14.054,0.235c1.92,0.327 2.705,0.206 3.947,1.247c1.295,1.006 11.505,9.435 11.147,9.605m-37.066,-0.776c-3.497,-1.163 -55.446,-4.5 -65.214,-1.964c-2.742,0.462 -12.846,1.998 -25.734,4.647c0.174,1.974 0.368,4.035 0.579,6.177c0.029,0.306 0.049,0.518 0.06,0.623c0.018,0.192 0.036,0.376 0.054,0.548c0.099,0.899 0.168,1.548 -0.228,1.997c-0.206,0.233 -0.524,0.396 -0.97,0.498c-0.848,0.193 -1.964,0.311 -2.947,0.417c-0.694,0.075 -1.294,0.142 -1.61,0.216c-0.914,0.219 -1.606,-0.239 -2.243,-3.194c-0.195,-0.898 -0.453,-2.976 -0.712,-5.569c-18.361,3.983 -39.862,10.209 -54.863,15.461c0.291,1.352 0.56,2.464 0.761,3.075c0.006,0.016 0.01,0.032 0.016,0.049c0.199,0.609 0.447,1.365 0.189,1.779c-0.069,0.11 -0.169,0.19 -0.299,0.237c-0.33,0.121 -0.66,0.243 -0.989,0.364c-0.347,0.13 -0.629,-0.416 -1.122,-2.158c-0.245,-0.863 -0.467,-1.734 -0.677,-2.611c-8.319,2.905 -14.388,5.271 -16.541,6.106c-8.769,3.547 -17.082,6.317 -23.454,9.395c0.25,-0.185 0.502,-0.374 0.757,-0.566l20.719,-9.873l0.786,-0.321c3.045,-1.242 9.958,-4.043 17.279,-6.747c-0.543,-2.599 -0.938,-5.252 -1.174,-7.93c-0.388,-4.402 -0.137,-6.902 0.806,-8.1c0.723,-0.921 2.205,-1.471 2.493,-1.57c0.045,-0.016 0.068,-0.022 0.068,-0.022c0.036,-0.012 0.07,-0.003 0.085,0.021c0.013,0.024 0.005,0.057 -0.023,0.083c-0.028,0.02 -2.56,2.375 -1.448,9.352c0.312,1.971 0.829,4.838 1.339,7.379c15.43,-5.723 37.448,-12.433 54.993,-16.568c-0.502,-5.67 -0.93,-12.354 -0.838,-15.067c0.139,-4.294 1.022,-12.125 3.376,-14.208c2.19,-1.967 8.838,-4.263 9.126,-4.347c0.075,-0.025 0.157,-0.011 0.192,0.037c0.036,0.048 0.02,0.114 -0.039,0.162c-0.046,0.028 -4.248,3.478 -4.635,12.075c-0.186,3.907 0.123,10.664 0.849,19.474c9.363,-2.11 16.367,-3.433 18.421,-3.889c8.659,-2.067 31.46,-2.864 41.348,-1.335c9.894,1.222 29.373,3.37 32.465,4.266c3.098,0.8 2.557,1.964 -1.001,1.601m-70.201,27.806c0.033,0.001 0.064,0.002 0.099,0.003c0.007,0.02 0.016,0.041 0.024,0.061c-0.041,-0.021 -0.083,-0.044 -0.123,-0.064m-8.871,-7.293c1.388,-0.129 2.776,-0.251 4.165,-0.367c-0.033,1.508 0.045,3.177 0.522,3.46c0.591,0.351 1.007,1.659 1.535,2.711c-2.762,-1.665 -5.624,-3.768 -6.222,-5.804m-75.257,8.135c-0.945,0.497 -1.695,0.901 -1.83,0.973c-0.204,-0.384 -0.29,-0.627 -0.29,-0.627c0.716,-0.145 1.433,-0.29 2.149,-0.433c-0.009,0.03 -0.021,0.058 -0.029,0.087m-18.829,-10.608c0.321,2.066 0.645,4.132 0.97,6.198c-0.176,0.072 -0.912,0.375 -1.53,0.63l-1.052,-5.903c0.062,-0.039 0.122,-0.078 0.163,-0.097c0.482,-0.277 0.965,-0.552 1.449,-0.828m2.229,-1.261c0.337,2.176 0.675,4.352 1.015,6.527c-0.611,0.249 -1.221,0.498 -1.831,0.749c-0.329,-2.086 -0.658,-4.172 -0.984,-6.259c0.599,-0.341 1.199,-0.679 1.8,-1.017m2.335,-1.301c0.357,2.287 0.715,4.575 1.076,6.861c-0.651,0.261 -1.302,0.523 -1.952,0.786c-0.345,-2.194 -0.687,-4.39 -1.028,-6.587c0.633,-0.355 1.268,-0.709 1.904,-1.06m2.451,-1.353c0.353,2.416 0.708,4.83 1.066,7.245c-0.666,0.262 -1.33,0.525 -1.995,0.791c-0.366,-2.308 -0.73,-4.616 -1.091,-6.924c0.672,-0.372 1.346,-0.742 2.02,-1.112m3.532,-1.911c0.386,2.58 0.775,5.16 1.166,7.74c-1.043,0.402 -2.083,0.807 -3.123,1.216c-0.363,-2.437 -0.723,-4.876 -1.081,-7.314c1.01,-0.55 2.023,-1.098 3.038,-1.642m20.383,-10.278c0.318,3.437 0.64,6.873 0.969,10.309c-1.322,0.45 -2.642,0.906 -3.959,1.367c-0.377,-3.225 -0.751,-6.45 -1.122,-9.676c1.366,-0.672 2.737,-1.339 4.112,-2m5.355,-2.532c0.355,3.672 0.715,7.343 1.079,11.013c-1.301,0.427 -2.599,0.859 -3.895,1.296c-0.369,-3.489 -0.734,-6.977 -1.094,-10.467c1.299,-0.618 2.603,-1.233 3.91,-1.842m6.526,-2.979c0.331,3.975 0.668,7.95 1.011,11.925c-1.631,0.51 -3.257,1.028 -4.88,1.554c-0.401,-3.726 -0.799,-7.452 -1.192,-11.178c1.68,-0.776 3.367,-1.543 5.061,-2.301m7.567,-3.314c0.269,4.331 0.546,8.662 0.83,12.992c-1.938,0.573 -3.871,1.158 -5.799,1.753c-0.38,-4.029 -0.756,-8.058 -1.128,-12.088c2.023,-0.898 4.056,-1.784 6.097,-2.657m8.036,-3.356c0.175,4.708 0.359,9.414 0.552,14.12c-2.004,0.557 -4.001,1.127 -5.994,1.709c-0.324,-4.39 -0.645,-8.779 -0.959,-13.17c2.125,-0.9 4.259,-1.786 6.401,-2.659m11.46,-4.503c0.205,5.186 0.417,10.371 0.637,15.556c-3.137,0.794 -6.263,1.617 -9.376,2.469c-0.24,-4.78 -0.472,-9.561 -0.697,-14.341c3.126,-1.256 6.271,-2.485 9.436,-3.684m22.24,-7.573c-0.057,1.376 -0.24,6.131 -0.292,10.131c-0.041,3.267 0.15,6.467 0.27,8.138c-4.647,0.94 -7.913,1.737 -7.913,1.734c-0.125,-5.657 -0.243,-11.315 -0.354,-16.973c0.002,0.005 2.882,-1.486 8.289,-3.03m5.24,-1.288c4.509,-0.947 10.077,-1.714 16.554,-1.842c-0.38,1.76 -1.167,5.871 -1.392,10.01c-0.222,4.059 0.061,7.007 0.219,8.265c-4.649,0.376 -10.265,1.197 -15.267,2.098c-0.18,-2.227 -0.572,-7.285 -0.666,-10.659c-0.085,-3.038 0.299,-6.191 0.552,-7.872m21.3,4.757c0.455,-2.837 1.125,-5.08 1.616,-6.482c6.204,0.37 11.962,1.458 16.808,2.727c-1.168,1.559 -3.815,5.166 -5.395,7.506c-1.642,2.415 -3.277,6.288 -3.882,7.802c-2.955,-0.129 -6.035,-0.194 -8.944,-0.153c-0.233,-1.856 -0.85,-7.34 -0.203,-11.4m33.461,1.628c-2.95,3.704 -5.841,7.434 -8.674,11.187c0.001,0.002 -6.394,-0.793 -14.012,-1.184c0.475,-1.206 1.759,-4.208 4.246,-7.846c2.27,-3.32 4.137,-5.863 5.051,-7.095c8.201,2.303 13.388,4.946 13.389,4.938m-10.719,-26.549c3.149,-3.535 11.345,-4.953 18.829,-5.285c9.979,0.251 19.415,1.566 25.561,4.248c9.059,3.915 19.397,11.899 27.832,21.266c-0.122,0.129 -0.254,0.247 -0.391,0.351c-1.561,1.145 -8.366,0.349 -8.366,0.362c-0.001,-0.001 -0.527,1.38 -1.123,1.57c-0.599,0.189 -3.051,0.094 -4.174,-0.087c-1.119,-0.185 -3.156,-1.892 -3.158,-1.891c-0.049,-0.088 -23.247,-0.072 -39.268,-3.609c-16.022,-3.658 -22.092,-9.71 -15.742,-16.925m78.699,34.72c0.322,-0.413 2.764,-0.456 3.823,-0.633c1.057,-0.18 1.331,0.238 1.843,0.977c0.547,0.734 4.578,10.186 4.222,10.348c-0.323,0.144 -7.659,-0.495 -7.997,-0.713c-0.317,-0.234 -2.193,-9.568 -1.891,-9.979m13.282,18.089c-2.022,-18.179 -26.301,-46.46 -46.436,-54.838c-19.974,-9.511 -72.148,-0.58 -71.808,0.023c-0.04,-0.175 -25.915,3.32 -29.335,4.434c-3.714,0.641 -33.4,15.729 -33.987,16.897c-0.825,0.927 -1.17,6.204 -1.167,6.204c-0.012,-0.028 -9.977,2.842 -11.382,3.2c-1.431,0.315 -8.048,4.416 -8.817,5.064c-0.786,0.633 -1.929,2.295 -1.929,2.295c0,0 -1.539,0.493 -2.596,0.839c-1.07,0.335 -6.683,3.798 -6.962,4.204c-0.288,0.394 -0.694,0.954 -0.694,0.954c-0.004,-0.008 -5.501,3.584 -6.656,4.182c-1.181,0.572 -8.023,8.062 -8.103,8.352c-0.1,0.276 -0.264,0.738 -0.264,0.738c0,0 -13.337,9.501 -33.801,29.365c27.618,-7.079 43.676,-7.785 48.53,-8.502c0.227,0.345 0.467,0.749 0.743,0.86c0.084,0.034 0.335,0.018 0.691,-0.031c0.754,1.306 1.927,1.97 3.025,1.559c0.897,-0.334 1.545,-1.309 1.815,-2.536c0.334,-0.075 0.538,-0.121 0.538,-0.121c0,0 0.908,0.543 1.546,0.348c0.637,-0.196 0.991,-0.942 0.991,-0.942c0.297,-0.107 0.594,-0.213 0.89,-0.32c0,0 0.118,0.915 0.721,0.726c0.167,-0.053 0.369,-0.153 0.574,-0.269c0.716,1.935 2.195,3.042 3.601,2.552c1.373,-0.482 2.25,-2.343 2.203,-4.433c0.372,-0.014 0.768,-0.048 1.006,-0.129c0.42,-0.142 0.766,-1.182 0.913,-1.685c0.643,0.58 0.505,2.043 1.36,2.564c21.436,-2.295 43.799,-1.892 65.141,-1.297c1.468,2.713 3.78,4.243 6.316,3.783c2.42,-0.441 4.512,-2.588 5.787,-5.547c0.888,-0.031 1.428,-0.051 1.428,-0.051c0.003,0 2.047,1.796 3.757,1.617c1.712,-0.178 2.986,-1.872 2.987,-1.872c0.808,-0.121 1.617,-0.24 2.427,-0.356c0,0.001 -0.17,2.348 1.456,2.179c0.452,-0.047 1.016,-0.194 1.595,-0.38c0.817,5.207 3.945,8.733 7.727,8.258c3.697,-0.467 6.938,-4.601 8.014,-9.824c0.954,0.176 1.972,0.314 2.624,0.25c0.791,-0.079 1.743,-1.237 2.479,-2.329c3.902,0.852 4.638,8.916 4.632,8.911c-0.073,-0.606 44.05,0.473 45.007,0.66c0.867,-0.457 7.583,-4.078 7.598,-4.065c0,-0.003 3.32,-0.395 4.059,-1.345c0.741,-0.952 -1.569,-1.725 -0.147,-3.96c0.754,-1.731 23.684,-1.982 21.903,-16.186" style="fill:#416b99;fill-rule:nonzero;"/><path d="M243.831,126.186c3.397,-0.211 6.808,-0.385 10.229,-0.518c0.009,-0.017 0.019,-0.033 0.029,-0.05c-61.835,-19.678 -161.43,-25.095 -229.308,-16.819c64.634,-6.687 160.596,-1.088 219.05,17.387" style="fill:#416b99;fill-rule:nonzero;"/><path d="M24.781,108.799c63.311,-9.152 159.014,-6.56 218.383,9.053c3.798,-0.233 7.611,-0.418 11.439,-0.554c0.018,-0.037 0.038,-0.073 0.057,-0.109c-63.227,-16.95 -162.999,-19.303 -229.879,-8.39" style="fill:#416b99;fill-rule:nonzero;"/></g></svg>